<?xml version="1.0" encoding="UTF-8" standalone="no"?>
<svg width="33px" height="32px" viewBox="0 0 33 32" version="1.1" xmlns="http://www.w3.org/2000/svg" xmlns:xlink="http://www.w3.org/1999/xlink">
    <!-- Generator: Sketch 44.1 (41455) - http://www.bohemiancoding.com/sketch -->
    <title>Arrow 21</title>
    <desc>Created with Sketch.</desc>
    <defs></defs>
    <g id="Page-2-Copy" stroke="none" stroke-width="1" fill="none" fill-rule="evenodd">
        <g id="67" stroke="#979797" transform="translate(1.000000, 0.000000)" fill-rule="nonzero" fill="#2A2630">
            <path fill="#fff" d="M3.42311546,29.9877317 L8.99517793,29.9877317 C9.54746268,29.9877317 9.99517793,30.435447 9.99517793,30.9877317 C9.99517793,31.5400165 9.54746268,31.9877317 8.99517793,31.9877317 L2.76918775,31.9877317 L0.995177931,31.9877317 C0.442893181,31.9877317 -0.00482206869,31.5400165 -0.00482206869,30.9877317 L-0.00482206869,22.9877317 C-0.00482206869,22.435447 0.442893181,21.9877317 0.995177931,21.9877317 C1.54746268,21.9877317 1.99517793,22.435447 1.99517793,22.9877317 L1.99517793,28.5872422 L9.15983592,21.4225842 C9.55340162,21.0290185 10.1879684,21.0276167 10.5784927,21.418141 C10.9717396,21.8113879 10.9670277,22.4438195 10.5740495,22.8367977 L3.42311546,29.9877317 L3.42311546,29.9877317 Z M22.9678955,2.02709961 C22.4156108,2.02709961 21.9678955,1.57938436 21.9678955,1.02709961 C21.9678955,0.47481486 22.4156108,0.0270996103 22.9678955,0.0270996103 L29.1938857,0.0270996103 L30.9678955,0.0270996103 C31.5201803,0.0270996103 31.9678955,0.47481486 31.9678955,1.02709961 L31.9678955,9.02709961 C31.9678955,9.57938436 31.5201803,10.0270996 30.9678955,10.0270996 C30.4156108,10.0270996 29.9678955,9.57938436 29.9678955,9.02709961 L29.9678955,3.4275892 L22.8032375,10.5922472 C22.4096718,10.9858129 21.7751051,10.9872147 21.3845808,10.5966904 C20.9913338,10.2034434 20.9960458,9.57101183 21.389024,9.17803363 L28.539958,2.02709961 L22.9678955,2.02709961 Z" id="Rectangle-353" stroke="none"></path>
        </g>
    </g>
</svg>